<svg version="1.2" xmlns="http://www.w3.org/2000/svg" viewBox="0 0 571 571" width="512" height="512">
	<title>BCID_V_rgb_pos-ai</title>
	<style>
		.s0 { fill: #ffffff } 
		.s1 { fill: #e3a82b } 
		.s2 { fill: #234075 } 
	</style>
	<g id="BCID">
		<g id="&lt;Group&gt;">
			<g id="&lt;Group&gt;">
				<g id="&lt;Group&gt;">
					<g id="&lt;Group&gt;">
						<g id="&lt;Group&gt;">
							<g id="&lt;Group&gt;">
								<g id="&lt;Group&gt;">
								</g>
								<g id="&lt;Group&gt;">
									<g id="&lt;Group&gt;">
									</g>
								</g>
							</g>
						</g>
					</g>
				</g>
			</g>
			<path id="&lt;Path&gt;" class="s0" d="m88.3 410.3c89.5 0 213.1 50.3 302.9 50.3 64 0 126.5-17.1 162-42.2 2.5-14.8 3.8-30 3.8-45.5 0-150.2-121.8-272-272-272-150.3 0-272.1 121.8-272.1 272 0 15.3 1.3 30.3 3.7 45 9.8-1.9 43.2-7.6 71.7-7.6z"/>
			<g id="&lt;Group&gt;">
				<path id="&lt;Path&gt;" class="s1" d="m460.7 310l10.8 4.5 23.9-16.6z"/>
				<path id="&lt;Path&gt;" class="s1" d="m59.9 291.5l-28.3-10 1.4-3.5 31.9 10.7 0.1-0.1 4.2-2.4 1.7-1.1-34.7-14.7 1.4-3.7 77.5 31.4 2.6-1.1-76.9-37.4 1.7-3.5 81.5 37.9 1.1-0.6-79-44.8 1.7-3.4 114 62.1c0.9-1.7 2.9-4.9 3.9-6.6-43.4-40.7-85.2-71.4-85.2-71.4 0 0 43 28.9 96.1 55.7 1.8-2.2 3.2-4 5.1-6.1l-97.3-85.6 2.6-2.7 78.6 66.9-72.8-72.8 2.7-2.9 81.7 79-76-84.4 2.9-2.6 70.3 75.2-64.2-80.8 2.8-2.5 82.2 100c2.1-1.8 3.9-3.2 6.1-4.9-24.9-53.8-52-97.6-52-97.6 0 0 28.9 42.6 67.9 87.1q3.6-2 7.3-3.8l-0.5-0.3-57.6-115 3.4-1.5 47.8 91.5-40.2-94.8 3.6-1.6 46.2 103.8-38.9-106.7 3.7-1.4 36.9 96.1-29.2-98.9 3.5-1.3 38.5 122.7-0.1 0.3h0.1q3.8-1.3 7.8-2.3c-3-59-11.7-109.4-11.7-109.4 0 0 10.8 50 30.2 105.7q4-0.5 8.1-0.8l-0.1-0.1h0.4l-0.2-0.3-10.4-128.2 3.8-0.1 10 102.7-1.7-103 3.9-0.1 3.9 113.5 3.9-113.5 3.9 0.1-1.7 103 10-102.7 3.8 0.1-10.4 128.2-0.2 0.3h0.1-0.1 0.2q4 0.3 8 0.8c19.3-55.7 30.1-105.6 30.1-105.6 0 0-8.7 50.3-11.6 109.1q3.9 1.1 7.8 2.3l38.3-122.3 3.5 1.3-29.2 99 37-96.1 3.6 1.3-38.8 106.7 46.1-103.8 3.6 1.6-40.2 94.8 47.8-91.4 3.4 1.5-57.4 114.6h0.1q3.5 1.7 7 3.7c38.8-44.5 67.5-86.8 67.5-86.8 0 0-26.9 43.5-51.7 97.1q3.3 2.5 6.4 5.2l81.3-99 2.8 2.5-64.2 80.8 70.3-75.2 2.9 2.6-76 84.4 81.7-79 2.7 2.9-72.8 72.8 78.6-66.9 2.6 2.7-96.1 84.7q2.5 2.8 4.9 5.8c52.8-26.7 95.4-55.3 95.4-55.3 0 0-41.4 30.4-84.6 70.8 1.2 2 3.1 5.4 4.2 7.4l112.5-61.2 1.6 3.4-89.8 50.9 93.4-43.5 1.7 3.5-87 42.4 1.7 0.6 88.5-35.8 1.5 3.6-82.3 35 1.6 0.7 54.8-18.3 8.2-5.8 2.8 2.1 18-6 1.4 3.5-15.6 5.5 22.6 17.2 7.2 4c-29-121.2-138-211.2-268-211.2-132.3 0-242.9 93.2-269.5 217.6q0.5-0.2 1-0.5l3.3-1.5 2.1-0.9z"/>
			</g>
			<path id="&lt;Path&gt;" class="s2" d="m14 423.7c0 0 40.6-8.1 74.5-8.1 89.4 0 213.1 50.4 302.9 50.4 65.8 0 130-18.1 165-44.4 2.7-15.6 4.1-31.6 4.1-48 0-22.1-2.6-43.7-7.5-64.3l-37.4-20.9-43.9 30.8-29.6-11.5c-10 5.1-71.6 46.3-71.6 46.3l-23.7-17.1-25.4-5.1-33.9-24.6-38.8 26.6c0 0-43.3 25.2-44.8 25.2-1.5 0-52.3-40.3-52.3-40.3l-23.4-24.6c-4 2.5-19.9 9.8-19.9 9.8l-0.8 0.2-15.4-4.7-18.7-10-56.9 25.8q-0.5 0.3-1 0.5c-4 18.7-6.1 38-6.1 57.9 0 17.1 1.6 33.9 4.6 50.1z"/>
		</g>
	</g>
</svg>